<mxfile host="app.diagrams.net" modified="2023-09-25T09:05:25.708Z" agent="Mozilla/5.0 (Windows NT 10.0; Win64; x64) AppleWebKit/537.36 (KHTML, like Gecko) Chrome/116.0.0.0 Safari/537.36 OPR/102.0.0.0" version="21.7.5" etag="ozvqpoqpJJJhBP4FVxKX" type="github">
  <diagram name="Page-1" id="567cU7zU4idR2Q4NE55Z">
    <mxGraphModel>
      <root>
        <mxCell id="0" />
        <mxCell id="1" parent="0" />
      </root>
    </mxGraphModel>
  </diagram>
</mxfile>
